<svg width="24" height="24" viewBox="0 0 24 24" fill="none" xmlns="http://www.w3.org/2000/svg">
<path fill-rule="evenodd" clip-rule="evenodd" d="M11.9999 0.960449C12.3612 0.960449 12.6943 1.15531 12.8715 1.47019L13.743 3.01966L22.743 19.0197L23.5813 20.5099C23.7555 20.8196 23.7523 21.1984 23.5729 21.505C23.3936 21.8117 23.065 22.0002 22.7097 22.0002H20.9999H2.99989H1.29004C0.934775 22.0002 0.606183 21.8117 0.42683 21.505C0.247476 21.1984 0.244291 20.8196 0.418464 20.5099L1.25674 19.0197L10.2567 3.01966L11.1283 1.47019C11.3054 1.15531 11.6386 0.960449 11.9999 0.960449ZM11.9999 4.00018L2.99989 20.0002H20.9999L11.9999 4.00018ZM11.9999 17.7502C12.6902 17.7502 13.2499 17.1905 13.2499 16.5002C13.2499 15.8098 12.6902 15.2502 11.9999 15.2502C11.3095 15.2502 10.7499 15.8098 10.7499 16.5002C10.7499 17.1905 11.3095 17.7502 11.9999 17.7502ZM11.9999 9.00018C12.5522 9.00018 12.9999 9.4479 12.9999 10.0002V13.0002C12.9999 13.5525 12.5522 14.0002 11.9999 14.0002C11.4476 14.0002 10.9999 13.5525 10.9999 13.0002V10.0002C10.9999 9.4479 11.4476 9.00018 11.9999 9.00018Z" fill="#766115"/>
</svg>
