<?xml version="1.0" encoding="UTF-8"?>
<svg width="10px" height="10px" viewBox="0 0 10 10" version="1.1" xmlns="http://www.w3.org/2000/svg" xmlns:xlink="http://www.w3.org/1999/xlink">
    <title>B34B4D0A-2E12-40E8-8DDF-5BC2947878AA@1.00x</title>
    <g id="Admin-" stroke="none" stroke-width="1" fill="none" fill-rule="evenodd">
        <g id="Alerts-&amp;-Feedback-component" transform="translate(-719.000000, -275.000000)">
            <g id="Feedback---message" transform="translate(272.000000, 240.000000)">
                <g id="icons-/-ic-cancel-small" transform="translate(440.000000, 28.000000)">
                    <rect id="container" x="0" y="0" width="24" height="24"></rect>
                    <path d="M7.29289322,7.29289322 C7.68341751,6.90236893 8.31658249,6.90236893 8.70710678,7.29289322 L8.70710678,7.29289322 L12,10.585 L15.2928932,7.29289322 C15.6834175,6.90236893 16.3165825,6.90236893 16.7071068,7.29289322 C17.0675907,7.65337718 17.0953203,8.22060824 16.7902954,8.61289944 L16.7071068,8.70710678 L13.415,12 L16.7071068,15.2928932 L16.7902954,15.3871006 C17.0953203,15.7793918 17.0675907,16.3466228 16.7071068,16.7071068 C16.3165825,17.0976311 15.6834175,17.0976311 15.2928932,16.7071068 L15.2928932,16.7071068 L12,13.415 L8.70710678,16.7071068 C8.31658249,17.0976311 7.68341751,17.0976311 7.29289322,16.7071068 C6.93240926,16.3466228 6.90467972,15.7793918 7.20970461,15.3871006 L7.29289322,15.2928932 L10.585,12 L7.29289322,8.70710678 L7.20970461,8.61289944 C6.90467972,8.22060824 6.93240926,7.65337718 7.29289322,7.29289322 Z" id="fill-color" fill="#BCC1C5"></path>
                </g>
            </g>
        </g>
    </g>
</svg>